<?xml version="1.0" encoding="UTF-8"?>
<svg width="19px" height="19px" viewBox="0 0 19 19" version="1.1" xmlns="http://www.w3.org/2000/svg" xmlns:xlink="http://www.w3.org/1999/xlink">
    <!-- Generator: Sketch 52.5 (67469) - http://www.bohemiancoding.com/sketch -->
    <title>项目管理</title>
    <desc>Created with Sketch.</desc>
    <g id="页面-1" stroke="none" stroke-width="1" fill="none" fill-rule="evenodd">
        <g id="画板-copy-23" transform="translate(-31.000000, -398.000000)" fill="#F5F5F5" fill-rule="nonzero">
            <g id="项目管理" transform="translate(31.000000, 398.000000)">
                <path d="M16,4.99766628 C16,3.89614936 15.1038506,3 14.0023337,3 L1.99766628,3 C0.896149358,3 0,3.89614936 0,4.99766628 L0,17.0023337 C0,18.1038506 0.896149358,19 1.99766628,19 L14.0023337,19 C15.1038506,19 16,18.1038506 16,17.0023337 L16,4.99766628 Z M1.69607843,4 L14.3039216,4 C14.6862745,4 15,4.29906542 15,4.6635514 L15,8 L1,8 L1,4.6635514 C1,4.29906542 1.31372549,4 1.69607843,4 Z M14.2946116,18 L1.69559132,18 C1.31350595,18 1,17.7012835 1,17.3372229 L1,10 L15,10 L15,17.3372229 C14.9902029,17.7012835 14.676697,18 14.2946116,18 Z M13,6 L12,6 L12,7 L13,7 L13,6 Z M3.63312102,7 L9.36687898,7 C9.71464968,7 10,6.77464789 10,6.5 C10,6.22535211 9.71464968,6 9.36687898,6 L3.63312102,6 C3.28535032,6 3,6.22535211 3,6.5 C3,6.77464789 3.28535032,7 3.63312102,7 Z M17.0023337,2.86808047e-14 L4.99766628,2.86808047e-14 C3.89614936,2.86808047e-14 3,0.896149358 3,1.99766628 L4.33488915,1.99766628 C4.33488915,1.6336056 4.6336056,1.33488915 4.99766628,1.33488915 L17.0023337,1.33488915 C17.3663944,1.33488915 17.6651109,1.6336056 17.6651109,1.99766628 L17.6651109,14.0023337 C17.6651109,14.3663944 17.3663944,14.6651109 17.0023337,14.6651109 L17.0023337,16 C18.1038506,16 19,15.1038506 19,14.0023337 L19,1.99766628 C19,0.896149358 18.1038506,2.84217094e-14 17.0023337,2.86808047e-14 Z" id="形状"></path>
            </g>
        </g>
    </g>
</svg>