<?xml version="1.0" encoding="UTF-8"?>
<svg width="19px" height="24px" viewBox="0 0 19 24" version="1.1" xmlns="http://www.w3.org/2000/svg" xmlns:xlink="http://www.w3.org/1999/xlink">
    <!-- Generator: Sketch 52.5 (67469) - http://www.bohemiancoding.com/sketch -->
    <title>权限管理</title>
    <desc>Created with Sketch.</desc>
    <g id="页面-1" stroke="none" stroke-width="1" fill="none" fill-rule="evenodd">
        <g id="画板-copy-23" transform="translate(-31.000000, -548.000000)" fill="#F5F5F5" fill-rule="nonzero">
            <g id="权限管理" transform="translate(31.000000, 548.000000)">
                <path d="M9.49361832,0 L0.559833078,2.92010346 C0.222756715,3.03271631 -0.00343797109,3.35579948 0.0014718111,3.7176328 L0.0472575143,15.1952273 L0.0573080086,15.3273893 L0.0573081265,15.3273898 C0.423911244,16.7970573 1.18999374,18.1311602 2.26730201,19.1760523 L2.26730084,19.1760514 C4.21774073,20.7730929 6.3370227,22.1427066 8.58570294,23.259393 C8.81574835,23.3847192 8.98995604,23.4770048 9.08822879,23.5339719 L9.25573718,23.6285362 C9.37041949,23.689922 9.50734028,23.689922 9.62202281,23.6285362 L9.86658439,23.4997922 C10.725345,23.0668472 15.0961941,20.8200827 16.7188034,19.1703419 L16.7188036,19.1703417 C17.7974362,18.1256254 18.5637206,16.7903726 18.9287974,15.3194118 L18.9857593,3.71308274 L18.9857593,3.71308196 C18.9903086,3.35136432 18.7642495,3.02847527 18.427398,2.91555261 L9.49361832,0 Z M17.4781941,15.10863 L17.4781943,15.1086294 C17.1516223,16.2594267 16.5333934,17.3020237 15.6858539,18.1312762 L15.6858536,18.1312765 C13.8175942,19.6346038 11.7899811,20.9194294 9.64103862,21.9616839 C9.52774038,22.0222613 9.39251976,22.0222613 9.27922058,21.9616839 L9.27922232,21.9616848 C7.16061842,20.905555 5.15759057,19.6235012 3.30364321,18.1369691 L3.30364347,18.1369693 C2.45537824,17.3068144 1.8360903,16.2635997 1.50795356,15.1120551 L1.46663474,4.45022655 L1.46663474,4.45022207 C1.46654154,4.29123516 1.56653259,4.15016466 1.71455039,4.1004524 L9.25243807,1.63494563 C9.40968675,1.58357883 9.57873111,1.58357883 9.73597794,1.63494559 L17.2738656,4.10045237 C17.4229847,4.14906099 17.5241443,4.2905121 17.5240105,4.45022666 L17.481575,15.113212 L17.4781941,15.10863 Z M9.62986761,5.53826846 C11.4338192,5.52616277 12.9058376,7.00834316 12.9176982,8.84880958 C12.9276367,10.3903777 11.899931,11.737678 10.4328041,12.1064825 L10.4238704,13.5124144 L11.7873883,13.5124144 C12.004673,13.5106794 12.2135211,13.5981267 12.3669671,13.7550919 C12.6876926,14.0810397 12.6886995,14.6105333 12.3692208,14.937749 C12.2137735,15.0969608 12.0020621,15.1856439 11.7818045,15.1838092 L10.4182865,15.1838092 L10.4182865,17.5182908 C10.3892419,17.9829798 9.99646707,18.3356624 9.54099576,18.3060308 C9.12602505,18.2790331 8.79534839,17.9416617 8.76888546,17.5182907 L8.78898647,12.1041988 C7.64382112,11.8202725 6.7411605,10.9224834 6.4338104,9.76173482 L6.43381033,9.76173457 C5.96257783,7.97144315 7.0030888,6.13037517 8.75784949,5.64961049 C9.04289807,5.57151278 9.33695207,5.53290538 9.63209461,5.53482761 L9.62986761,5.53826846 Z M11.6109341,8.85029035 L11.6109341,8.85029375 C11.6148098,8.32701938 11.4109896,7.82441332 11.045876,7.45689523 C10.2857692,6.68989068 9.06219481,6.68989068 8.30209023,7.45689513 L8.30209038,7.45689497 C7.54779817,8.2205702 7.54312423,9.46350389 8.29164729,10.2330629 C8.65463327,10.6062495 9.1491742,10.8152904 9.66449269,10.8133539 C10.723772,10.7967017 11.5822899,9.93185554 11.6120571,8.85142952 L11.6109341,8.85029035 Z" id="形状"></path>
            </g>
        </g>
    </g>
</svg>