<?xml version="1.0" encoding="UTF-8"?>
<svg width="27px" height="18px" viewBox="0 0 27 18" version="1.1" xmlns="http://www.w3.org/2000/svg" xmlns:xlink="http://www.w3.org/1999/xlink">
    <!-- Generator: Sketch 52.5 (67469) - http://www.bohemiancoding.com/sketch -->
    <title>形状</title>
    <desc>Created with Sketch.</desc>
    <g id="页面-1" stroke="none" stroke-width="1" fill="none" fill-rule="evenodd">
        <g id="画板-copy-23" transform="translate(-26.000000, -23.000000)" fill="#FFFFFF" fill-rule="nonzero">
            <g id="云计算" transform="translate(26.000000, 23.000000)">
                <path d="M26.9999996,12.8944861 C26.9999996,15.7082702 24.6140178,18 21.6879393,18 C21.5833069,18 21.4919803,17.9870224 21.3976297,17.9870224 L5.35258269,17.9870224 C2.39928763,17.8189032 0,15.6197864 0,12.7664795 C0,10.8499209 1.06628286,9.17757755 2.66238068,8.26560475 C2.55600662,7.92429338 2.50259495,7.56937758 2.50392005,7.21264786 C2.50392005,5.24771812 4.15082205,3.65088089 6.20960075,3.65088089 C7.05391775,3.65088089 7.84682576,3.93402898 8.47764426,4.39827386 L8.47764464,4.39827311 C9.82485304,1.69946261 12.6366127,-0.00947250218 15.7142155,3.95038393e-05 C20.1553471,3.95038393e-05 23.7430895,3.45975518 23.7430895,7.71582485 C23.7430895,7.87096641 23.7297837,8.02551807 23.7297837,8.17712028 C25.6403835,8.94751903 27,10.7708747 27,12.8944854 L26.9999996,12.8944861 Z M10.0205186,14.9909617 C11.313001,14.9909617 12.2510638,14.5927847 13.1824737,13.7167953 C12.8014424,13.2566797 12.3792839,12.8024629 11.9813179,12.3411675 C11.4412211,12.8543734 10.8472961,13.1776342 10.0809998,13.1776342 C9.14293701,13.1776342 8.33914239,12.5747647 8.33914239,11.623859 C8.33914239,10.685931 9.14293701,10.0700839 10.0537833,10.0700839 C12.9532501,10.0700839 13.5737868,15.0074787 17.7929526,15.0074787 C19.8517313,15.0074787 21.5899598,13.7468798 21.5899598,11.6368367 C21.5899598,9.50378774 19.8384254,8.25616648 17.7524302,8.25616648 C16.4599478,8.25616648 15.4982973,8.61482073 14.5771693,9.50378774 C14.998723,9.95151565 15.3936649,10.4287382 15.8019128,10.8900336 C16.3280989,10.3892154 16.9220239,10.0665446 17.6750143,10.0665446 C18.545943,10.0665446 19.4168717,10.6688241 19.4168717,11.5707688 C19.4168717,12.5617871 18.6771871,13.1906118 17.6883202,13.1906118 C14.8801799,13.1906118 14.1277942,8.25321703 10.0168898,8.25321703 C7.97504581,8.25321703 6.16907836,9.47429315 6.16907836,11.5937746 C6.16907836,13.7663462 7.92424163,14.9915516 10.0205186,14.9915516 L10.0205186,14.9909617 Z" id="形状"></path>
            </g>
        </g>
    </g>
</svg>