<?xml version="1.0" encoding="UTF-8"?>
<svg width="18px" height="18px" viewBox="0 0 18 18" version="1.1" xmlns="http://www.w3.org/2000/svg" xmlns:xlink="http://www.w3.org/1999/xlink">
    <!-- Generator: Sketch 52.5 (67469) - http://www.bohemiancoding.com/sketch -->
    <title>分组</title>
    <desc>Created with Sketch.</desc>
    <g id="页面-1" stroke="none" stroke-width="1" fill="none" fill-rule="evenodd">
        <g id="画板-copy-23" transform="translate(-31.000000, -83.000000)" fill="#FFFFFF">
            <g id="分组-8" transform="translate(26.000000, 83.000000)">
                <g id="总览" transform="translate(5.000000, 0.000000)">
                    <g id="分组" transform="translate(0.000000, 0.298828)">
                        <path d="M13.8672232,10.9771124 C14.205221,10.9771124 14.4792239,10.7031095 14.4792239,10.3651117 C14.4792239,10.3651117 14.4792239,10.3651117 14.4792239,10.3651117 L14.4792239,5.43310593 C14.4792239,5.0951081 14.205221,4.82110524 13.8672231,4.82110524 C13.5292253,4.82110524 13.2552224,5.0951081 13.2552224,5.43310596 L13.2552224,10.3651117 C13.2552224,10.7035121 13.5295435,10.9771124 13.8672231,10.9771124 Z M10.4839399,10.9771124 C10.8216196,10.9771124 11.0959406,10.6185516 11.0959406,10.1764718 L11.0959406,3.72741938 C11.0959406,3.28533957 10.8216196,2.9267788 10.4839399,2.9267788 C10.1462602,2.9267788 9.87193922,3.28533957 9.87193922,3.72741938 L9.87193922,10.1771925 C9.87193922,10.6192723 10.1455395,10.9771141 10.4839399,10.9771141 L10.4839399,10.9771124 Z M4.14000482,10.9771124 C4.47800264,10.9771124 4.7520055,10.7031095 4.7520055,10.3651117 C4.7520055,10.3651117 4.7520055,10.3651117 4.7520055,10.3651117 L4.7520055,9.22174999 C4.7520055,8.88375213 4.47800264,8.60974928 4.14000479,8.60974928 C3.80200694,8.60974928 3.52800408,8.88375213 3.52800408,9.22174999 L3.52800408,10.3651117 C3.52800408,10.7035121 3.8023251,10.9771124 4.14000479,10.9771124 Z M7.1006567,10.9771124 C7.43865453,10.9771124 7.71265739,10.7031095 7.71265739,10.3651117 L7.71265739,7.32671165 C7.71265739,6.9887138 7.43865453,6.71471094 7.10065667,6.71471094 C6.76265882,6.71471094 6.48865596,6.9887138 6.48865596,7.32671165 L6.48865596,10.3651117 C6.48865596,10.7035121 6.76225628,10.9771124 7.10065667,10.9771124 Z" id="形状" fill-rule="nonzero"></path>
                        <path d="M15.8400184,1.22541295 C16.3562587,1.22541295 16.7760195,1.64517379 16.7760195,2.16141404 L16.7760195,11.129028 C16.7760195,11.6452682 16.3562587,12.0650291 15.8400184,12.0650291 L2.16000251,12.0650291 C1.64376226,12.0650291 1.22400142,11.6452682 1.22400142,11.129028 L1.22400142,2.16141404 C1.22400142,1.64517379 1.64376226,1.22541295 2.16000251,1.22541295 L15.8400184,1.22541295 Z M15.8400184,0.00141152508 L2.16000251,0.00141152508 C0.972001131,0.00141152508 0,0.973412656 0,2.16141404 L0,11.129028 C0,12.3170294 0.972001131,13.2890305 2.16000251,13.2890305 L15.8400184,13.2890305 C17.0280198,13.2890305 18.0000209,12.3170294 18.0000209,11.129028 L18.0000209,2.16141404 C18.0000209,0.973412656 17.0280198,0.00141152508 15.8400184,0.00141152508 Z M11.1679407,15.7571955 L6.83137709,15.7571955 C6.4937062,15.7564038 6.22016741,15.4828657 6.21937639,15.1451948 C6.21937639,14.8089547 6.49441636,14.5331941 6.8313771,14.5331941 L11.1679407,14.5331941 C11.5041808,14.5331941 11.7799415,14.808234 11.7799415,15.1451948 C11.7799415,15.4814348 11.5049015,15.7571955 11.1679407,15.7571955 Z" id="形状" fill-rule="nonzero"></path>
                        <path d="M17.3880202,16.9811916 L0.612000719,16.9811916 C0.27432983,16.9803999 0.000791035083,16.7068618 1.8537272e-08,16.3691909 C1.8537272e-08,16.0322302 0.275039987,15.7571902 0.612000731,15.7571902 L17.3880203,15.7571902 C17.7242603,15.7571902 18.000021,16.0322302 18.000021,16.3691909 C18.000021,16.7061517 17.724981,16.9811916 17.3880203,16.9811916 Z" id="路径"></path>
                    </g>
                </g>
            </g>
        </g>
    </g>
</svg>