<?xml version="1.0" encoding="UTF-8"?>
<svg width="16px" height="16px" viewBox="0 0 16 16" version="1.1" xmlns="http://www.w3.org/2000/svg" xmlns:xlink="http://www.w3.org/1999/xlink">
    <!-- Generator: Sketch 52.5 (67469) - http://www.bohemiancoding.com/sketch -->
    <title>➕</title>
    <desc>Created with Sketch.</desc>
    <g id="页面-1" stroke="none" stroke-width="1" fill="none" fill-rule="evenodd">
        <g id="画板-copy-23" transform="translate(-630.000000, -382.000000)" fill="#C1D6F9">
            <g id="➕" transform="translate(630.000000, 382.000000)">
                <g id="分组">
                    <path d="M12.292608,7.50848 L8.49152,7.50848 L8.49152,3.707392 L8.49152001,3.70739378 C8.49001713,3.43744658 8.26996321,3.21983058 8.00001761,3.22133298 C8.00001252,3.22133301 8.00000743,3.22133303 8.00000234,3.22133306 C7.73005516,3.21982075 7.50999436,3.43742906 7.50848236,3.70737626 C7.50848233,3.70738135 7.50848231,3.70738644 7.50848228,3.70739153 L7.50848228,7.50847953 L3.70739428,7.50847953 C3.43744706,7.5099834 3.21983106,7.73003793 3.22133506,7.99998353 C3.22133509,7.99998864 3.22133512,7.99999374 3.22133515,7.99999884 C3.22133515,8.27101804 3.43910635,8.49151884 3.70739435,8.49151884 L7.50848235,8.49151884 L7.50848235,12.2926068 C7.50848235,12.5608948 7.72898315,12.778666 8.00000235,12.778666 C8.27102155,12.778666 8.49152235,12.5608948 8.49152235,12.2926068 L8.49152235,8.49151884 L12.2926103,8.49151884 C12.5625576,8.49001496 12.7801736,8.26996044 12.7786696,8.00001484 C12.7786695,8.00000975 12.7786695,8.00000466 12.7786695,7.99999957 L12.7786695,7.99999817 C12.780181,7.73005097 12.5625719,7.50999177 12.2926247,7.50847977 C12.2926196,7.50847974 12.2926145,7.50847972 12.2926094,7.50847969 L12.292608,7.50848 Z" id="路径"></path>
                    <path d="M8,15.9872 C3.588608,15.9872 0.0128,12.411392 0.0128,8 C0.0128,3.588608 3.588608,0.0128 8,0.0128 C12.411392,0.0128 15.9872,3.588608 15.9872,8 C15.9872,12.411392 12.411392,15.9872 8,15.9872 Z M8,15.0314672 C11.883696,15.0314672 15.031472,11.8836912 15.031472,7.9999952 C15.031472,4.1162992 11.883696,0.9685232 8,0.9685232 C4.116304,0.9685232 0.968528,4.1162992 0.968528,7.9999952 C0.968528,11.8836912 4.116304,15.0314672 8,15.0314672 Z" id="形状" fill-rule="nonzero"></path>
                </g>
            </g>
        </g>
    </g>
</svg>