<?xml version="1.0" encoding="UTF-8"?>
<svg width="17px" height="17px" viewBox="0 0 17 17" version="1.1" xmlns="http://www.w3.org/2000/svg" xmlns:xlink="http://www.w3.org/1999/xlink">
    <!-- Generator: Sketch 52.5 (67469) - http://www.bohemiancoding.com/sketch -->
    <title>Fill 1</title>
    <desc>Created with Sketch.</desc>
    <g id="页面-1" stroke="none" stroke-width="1" fill="none" fill-rule="evenodd">
        <g id="画板-copy-2" transform="translate(-1378.000000, -149.000000)" fill="#FFFFFF">
            <g id="分组-13" transform="translate(1156.000000, 141.000000)">
                <g id="分组-25" transform="translate(214.000000, 0.000000)">
                    <g id="search" transform="translate(8.000000, 8.000000)">
                        <path d="M16.9489472,15.7781253 L11.4303752,10.2594471 C12.2867237,9.15234863 12.7500003,7.79880329 12.7500003,6.37500013 C12.7500003,4.6707501 12.0849018,3.07275006 10.8821252,1.86787504 C9.67932208,0.663026577 8.07707205,0 6.37500013,0 C4.67292822,0 3.07067819,0.665098452 1.86787504,1.86787504 C0.663026577,3.07067819 0,4.6707501 0,6.37500013 C0,8.07707205 0.665098452,9.67932208 1.86787504,10.8821252 C3.07067819,12.0869737 4.6707501,12.7500003 6.37500013,12.7500003 C7.79880329,12.7500003 9.15025019,12.2867237 10.2573752,11.4324471 L15.7760535,16.9489472 C15.8440003,17.0170269 15.9545269,17.0170269 16.0224738,16.9489472 L16.9489472,16.0246519 C17.0170269,15.9565988 17.0170269,15.8460988 16.9489472,15.7781253 Z M9.74097364,9.74097364 C8.84002675,10.6398487 7.64575016,11.1349737 6.37500013,11.1349737 C5.10425011,11.1349737 3.90997352,10.6398487 3.00902663,9.74097364 C2.11015161,8.84002675 1.6150266,7.64575016 1.6150266,6.37500013 C1.6150266,5.10425011 2.11015161,3.90790165 3.00902663,3.00902663 C3.90997352,2.11015161 5.10425011,1.6150266 6.37500013,1.6150266 C7.64575016,1.6150266 8.84209862,2.10797348 9.74097364,3.00902663 C10.6398487,3.90997352 11.1349737,5.10425011 11.1349737,6.37500013 C11.1349737,7.64575016 10.6398487,8.84209862 9.74097364,9.74097364 Z" id="Fill-1"></path>
                    </g>
                </g>
            </g>
        </g>
    </g>
</svg>