<?xml version="1.0" encoding="UTF-8"?>
<svg width="32px" height="32px" viewBox="0 0 32 32" version="1.1" xmlns="http://www.w3.org/2000/svg" xmlns:xlink="http://www.w3.org/1999/xlink">
    <!-- Generator: Sketch 52.5 (67469) - http://www.bohemiancoding.com/sketch -->
    <title>分组 4</title>
    <desc>Created with Sketch.</desc>
    <g id="页面-1" stroke="none" stroke-width="1" fill="none" fill-rule="evenodd">
        <g id="画板-copy-2" transform="translate(-1370.000000, -141.000000)">
            <g id="分组-13" transform="translate(1156.000000, 141.000000)">
                <g id="分组-25" transform="translate(214.000000, 0.000000)">
                    <g id="分组-4">
                        <path d="M0,31.9981985 L0,0.00180148227 C0.0402574685,0.000603323199 0.080664338,7.44850694e-18 0.121212121,0 L28,0 C30.209139,-2.36792184e-15 32,1.790861 32,4 L32,28 C32,30.209139 30.209139,32 28,32 L0.121212121,32 C0.080664338,32 0.0402574685,31.9993967 -1.87350135e-16,31.9981985 Z" id="合并形状" fill="#4A71FF"></path>
                        <path d="M24.9489472,23.7781253 L19.4303752,18.2594471 C20.2867237,17.1523486 20.7500003,15.7988033 20.7500003,14.3750001 C20.7500003,12.6707501 20.0849018,11.0727501 18.8821252,9.86787504 C17.6793221,8.66302658 16.077072,8 14.3750001,8 C12.6729282,8 11.0706782,8.66509845 9.86787504,9.86787504 C8.66302658,11.0706782 8,12.6707501 8,14.3750001 C8,16.077072 8.66509845,17.6793221 9.86787504,18.8821252 C11.0706782,20.0869737 12.6707501,20.7500003 14.3750001,20.7500003 C15.7988033,20.7500003 17.1502502,20.2867237 18.2573752,19.4324471 L23.7760535,24.9489472 C23.8440003,25.0170269 23.9545269,25.0170269 24.0224738,24.9489472 L24.9489472,24.0246519 C25.0170269,23.9565988 25.0170269,23.8460988 24.9489472,23.7781253 Z M17.7409736,17.7409736 C16.8400267,18.6398487 15.6457502,19.1349737 14.3750001,19.1349737 C13.1042501,19.1349737 11.9099735,18.6398487 11.0090266,17.7409736 C10.1101516,16.8400267 9.6150266,15.6457502 9.6150266,14.3750001 C9.6150266,13.1042501 10.1101516,11.9079016 11.0090266,11.0090266 C11.9099735,10.1101516 13.1042501,9.6150266 14.3750001,9.6150266 C15.6457502,9.6150266 16.8420986,10.1079735 17.7409736,11.0090266 C18.6398487,11.9099735 19.1349737,13.1042501 19.1349737,14.3750001 C19.1349737,15.6457502 18.6398487,16.8420986 17.7409736,17.7409736 Z" id="Fill-1" fill="#FFFFFF"></path>
                    </g>
                </g>
            </g>
        </g>
    </g>
</svg>