<?xml version="1.0" encoding="UTF-8"?>
<svg width="20px" height="20px" viewBox="0 0 20 20" version="1.1" xmlns="http://www.w3.org/2000/svg" xmlns:xlink="http://www.w3.org/1999/xlink">
    <!-- Generator: Sketch 52.5 (67469) - http://www.bohemiancoding.com/sketch -->
    <title>放大</title>
    <desc>Created with Sketch.</desc>
    <g id="页面-1" stroke="none" stroke-width="1" fill="none" fill-rule="evenodd">
        <g id="画板-copy-23" transform="translate(-1196.000000, -19.000000)" fill="#3860F4" fill-rule="nonzero">
            <g id="放大" transform="translate(1196.000000, 19.000000)">
                <path d="M10.0494779,1.05263143 C9.75880116,1.05263141 9.52316309,0.816991789 9.52316309,0.526316459 C9.52316311,0.235639649 9.75880264,1.49064e-06 10.0494778,1.49064e-06 L18.4210533,1.49064e-06 C19.2930809,1.45252249e-06 20,0.7069209 20,1.57894886 L20,10.0157828 C20,10.3064596 19.7643605,10.5420977 19.4736852,10.5420977 C19.1830086,10.5420977 18.9473705,10.3064581 18.9473705,10.0157827 L18.9473705,1.57894884 C18.9473705,1.28827203 18.711731,1.05263387 18.4210557,1.05263387 C18.4210557,1.05263387 18.4210557,1.05263387 18.4210557,1.05263387 L10.0494802,1.05263387 L10.0494779,1.05263143 Z M18.2031587,18.9473601 L13.3115818,14.056842 C13.1057831,13.8510432 13.1057831,13.5173773 13.3115818,13.3115788 C13.5173805,13.1057801 13.8510462,13.1057801 14.0568446,13.3115788 L18.9473607,18.2031578 L18.9473607,15.2631578 C18.9473607,14.972481 19.1830003,14.7368429 19.4736755,14.7368429 C19.7643522,14.7368428 19.9999902,14.9724825 19.9999902,15.2631578 C19.9999902,15.2631579 19.9999902,15.2631579 19.9999902,15.2631579 L19.9999902,18.4210526 C19.9999902,19.2930806 19.2930711,20 18.4210435,20 L15.2631501,20 C14.9724734,20 14.7368353,19.7643604 14.7368353,19.473685 C14.7368353,19.1830082 14.9724748,18.9473701 15.26315,18.9473701 L18.2031488,18.9473701 L18.2031587,18.9473601 Z M1.57894681,1.05263143 C1.71368352,1.05263143 1.84842121,1.10421046 1.95157824,1.20631556 L7.21472574,6.46946524 C7.42052446,6.67526404 7.42052446,7.00892991 7.2147257,7.21472843 C7.00892702,7.4205272 6.67526129,7.4205272 6.46946285,7.21472836 L1.20631534,1.95157867 C1.10747185,1.85281482 1.05214901,1.71867609 1.05263133,1.57894714 L1.05263133,4.73684189 C1.05263133,5.02751869 0.816991786,5.26315685 0.526316576,5.26315685 C0.235639887,5.26315685 1.82577754e-06,5.02751721 1.82577754e-06,4.73684188 L1.82577754e-06,1.57894713 L1.82577756e-06,1.57894737 C1.694105e-06,0.70691941 0.706920943,0 1.57894854,0 C1.57894854,0 1.57894855,0 1.57894855,0 L4.73684198,0 C5.02751865,-1.27058638e-08 5.26315671,0.235639639 5.26315671,0.526314968 C5.26315672,0.816991778 5.02751717,1.05262994 4.73684196,1.05262994 L1.57894852,1.05262994 L1.57894681,1.05263143 Z M10.0242147,18.9473601 C10.3148914,18.9473601 10.5505294,19.1829997 10.5505294,19.4736751 C10.5505295,19.7643519 10.3148899,19.99999 10.0242147,19.99999 L1.57894679,19.99999 C0.706919117,19.99999 0,19.2930706 0,18.4210427 C0,18.4210427 0,18.4210427 0,18.4210427 L0,10.0526216 C4.38907779e-08,9.7619447 0.235639541,9.52630654 0.526314751,9.52630654 C0.81699144,9.52630658 1.0526295,9.76194618 1.0526295,10.0526215 L1.0526295,18.4210426 C1.05262946,18.7117193 1.28826904,18.9473575 1.57894425,18.9473575 C1.57894426,18.9473575 1.57894427,18.9473575 1.57894428,18.9473575 L10.0242122,18.9473575 L10.0242147,18.9473601 Z" id="形状"></path>
            </g>
        </g>
    </g>
</svg>