<?xml version="1.0" encoding="UTF-8"?>
<svg width="36px" height="36px" viewBox="0 0 36 36" version="1.1" xmlns="http://www.w3.org/2000/svg" xmlns:xlink="http://www.w3.org/1999/xlink">
    <!-- Generator: Sketch 52.5 (67469) - http://www.bohemiancoding.com/sketch -->
    <title>分组 12</title>
    <desc>Created with Sketch.</desc>
    <g id="页面-1" stroke="none" stroke-width="1" fill="none" fill-rule="evenodd">
        <g id="画板-copy-23" transform="translate(-1240.000000, -14.000000)">
            <g id="分组-12" transform="translate(1240.000000, 14.000000)">
                <circle id="Oval-4" fill="#F2F6FC" cx="18" cy="18" r="18"></circle>
                <path d="M18.4995187,9 C19.3772392,9 20.0963935,9.68239089 20.1400873,10.5373854 C19.9559582,10.5030163 19.7695226,10.4715534 19.5841122,10.4449552 C19.5046689,10.4335831 19.4252896,10.4329513 19.3478324,10.442049 C19.3158628,10.437437 19.2833167,10.4326354 19.2503221,10.4276444 C19.0211538,10.393528 18.7614254,10.3549259 18.4717135,10.3549259 C18.182258,10.3549259 17.9226577,10.393528 17.6935534,10.4275811 C17.665492,10.4317509 17.637815,10.4358575 17.6105223,10.4398378 C17.5302461,10.4291606 17.4479839,10.4290342 17.3654653,10.4404695 C17.1964561,10.4639087 17.0271906,10.4912019 16.8602955,10.5210853 C16.9121259,9.6737986 17.627372,9 18.4995187,9 Z M18.499871,26 C17.576124,26 16.801524,25.3602945 16.606333,24.5066819 L20.3934395,24.5066819 C20.1982181,25.3602945 19.423618,26 18.499871,26 Z M24.8598848,23.6641724 L12.1392775,23.6641724 C12.0892058,23.6641724 12.0432839,23.6388369 12.0194534,23.5981859 C11.9940361,23.5547665 11.9933343,23.501869 12.018477,23.4586001 L13.530848,20.8338218 C13.5674024,20.7704229 13.5866256,20.6986893 13.5866256,20.625722 L13.5866256,15.5817076 C13.5866256,13.7583966 15.0174662,11.8718974 16.9162829,11.1901868 C16.9787123,11.1707489 17.4697561,11.0203911 17.9650717,10.9400819 C17.9945472,10.9432713 18.0246023,10.943482 18.0548101,10.9404128 C18.1214808,10.933733 18.1834524,10.9244954 18.2433797,10.9155889 C18.3342776,10.9020786 18.4127872,10.8904039 18.4865674,10.8904039 C18.5604696,10.8904039 18.6390098,10.9020786 18.7299687,10.915619 C18.7898349,10.9245255 18.8517456,10.9337329 18.9183247,10.9404128 C18.9456642,10.943151 18.9728512,10.9432713 18.9995805,10.9409243 C19.513631,11.0258373 20.038178,11.1876593 20.1173284,11.2125434 C21.982642,11.9098404 23.3879128,13.7863499 23.3879128,15.5817076 L23.3879128,20.6256918 C23.3879128,20.6986893 23.407136,20.7704229 23.4437209,20.8338519 L24.8860344,23.3361052 C24.9061729,23.3710693 24.9313155,23.4030546 24.9606689,23.4309778 C24.9860251,23.4551398 25,23.4892915 25,23.5272345 C24.9999695,23.6040232 24.9384555,23.6641724 24.8598848,23.6641724 Z" id="Shape" fill="#3860F4"></path>
            </g>
        </g>
    </g>
</svg>