<?xml version="1.0" encoding="UTF-8"?>
<svg width="36px" height="36px" viewBox="0 0 36 36" version="1.1" xmlns="http://www.w3.org/2000/svg" xmlns:xlink="http://www.w3.org/1999/xlink">
    <!-- Generator: Sketch 52.5 (67469) - http://www.bohemiancoding.com/sketch -->
    <title>分组 14</title>
    <desc>Created with Sketch.</desc>
    <g id="页面-1" stroke="none" stroke-width="1" fill="none" fill-rule="evenodd">
        <g id="画板-copy-23" transform="translate(-1314.000000, -14.000000)">
            <g id="分组-14" transform="translate(1314.000000, 14.000000)">
                <g id="Shape-+-Shape-Mask" fill="#F2F6FC">
                    <circle id="Mask" cx="18" cy="18" r="18"></circle>
                </g>
                <g id="用户名" transform="translate(8.000000, 9.000000)">
                    <g id="分组">
                        <path d="M6.82449692,5.72885742 L6.82449679,5.72896377 C6.82254283,7.36055508 7.51913745,8.91513955 8.73866312,10.0007821 L8.73866325,10.0007822 C9.15271664,10.1243163 9.58258522,10.1869351 10.0147207,10.186665 C12.4754394,10.186665 14.4773491,8.18727631 14.4773491,5.72970209 C14.4773491,3.27212787 12.4753593,1.27138569 10.0146591,1.27138569 C9.58228951,1.2709639 9.15216631,1.33350037 8.73786241,1.4570222 C7.51863652,2.54282065 6.82234905,4.09738256 6.82451537,5.72886108 L6.82449692,5.72885742 Z" id="路径" fill="#91B4FF"></path>
                        <path d="M9.99938398,1.27138184 C12.4600821,1.27138184 14.4620123,3.27077051 14.4620123,5.72834473 C14.4620123,8.18591895 12.4600821,10.185082 9.99938398,10.185082 C7.53868583,10.185082 5.53673511,8.18593945 5.53673511,5.72885742 C5.53673511,3.27177539 7.5386653,1.27138184 9.99936345,1.27138184 L9.99938398,1.27138184 Z M9.99936345,1.52655844e-15 C6.83188912,0.000512695313 4.26425051,2.56491211 4.26425051,5.72885742 C4.26425051,8.89280273 6.83188912,11.4562178 9.99936345,11.4562178 C13.1668378,11.4562178 15.7344969,8.89181836 15.7344969,5.72885742 C15.7344969,2.56589648 13.1678645,0.000512695313 9.99938398,0.000512695313 L9.99936345,1.52655844e-15 Z" id="形状" fill="#3778FF" fill-rule="nonzero"></path>
                        <path d="M18.3382957,17.8578955 L18.338296,17.8578965 C18.2408032,17.5342422 18.1245075,17.2165393 17.9900024,16.9063996 C17.9159982,16.7368683 17.8367375,16.5692984 17.75222,16.4036916 L17.7522198,16.4036911 C17.1383204,15.2077678 16.256846,14.1691394 15.1761623,13.3683708 L15.1761625,13.368371 C13.6774767,12.2537837 11.8574972,11.6542604 9.98893462,11.6596396 C9.65717074,11.6595645 9.32566766,11.6781535 8.99599826,11.7153183 C5.58433501,13.1082458 3.18117279,16.4560888 3.18117279,20.3643036 L18.7049328,20.3643036 L18.7049307,20.3640332 C18.7055176,19.5151943 18.5819771,18.67082 18.3382202,17.8576503 L18.3382957,17.8578955 Z" id="路径" fill="#91B4FF"></path>
                        <path d="M4.38796715,13.5278145 C4.03643328,13.5277994 3.75147025,13.2431742 3.75148462,12.8920866 C3.75149323,12.6920095 3.8458148,12.5036112 4.00607805,12.3835605 L4.00607661,12.3835616 C4.24006429,12.2077533 4.48174396,12.0423937 4.7304031,11.8879739 C5.02899449,11.7025989 5.4215181,11.7940711 5.60712796,12.092283 C5.79273864,12.3904953 5.70115014,12.7825206 5.40255917,12.9678948 C5.18510537,13.1029183 4.9722717,13.2476009 4.77011564,13.4001585 C4.66005489,13.4831362 4.52587953,13.5279605 4.38798015,13.5278196 L4.38796715,13.5278145 Z M0.647392197,21 C0.295858288,21 0.0108829291,20.7153864 0.0108829291,20.3642988 C0.0108829291,20.3642988 0.0108829291,20.3642988 0.0108829291,20.3642988 L0.010882544,20.3615314 C0.0108821784,17.9437833 0.890769608,15.6084357 2.4866731,13.7904386 C2.71417825,13.5227911 3.11585586,13.4900155 3.38384354,13.7172324 C3.65183122,13.9444488 3.68464847,14.3456164 3.45714272,14.6132639 C3.45282855,14.6183393 3.4484348,14.6233467 3.44396311,14.6282842 L3.4439625,14.6282849 C2.05206106,16.2150051 1.2851124,18.2529382 1.28597482,20.3624743 L1.28597484,20.3624818 C1.28697571,20.7135694 1.00281262,20.998991 0.651280796,20.9999897 C0.649982281,20.9999934 0.648683753,20.9999932 0.647385252,20.9999889 L0.647392197,21 Z M19.3513552,21 C18.9998213,21 18.714846,20.7153864 18.714846,20.3642988 C18.714846,20.3642988 18.714846,20.3642988 18.714846,20.3642988 L18.7148459,20.3643414 C18.7170604,19.1748226 18.4737863,17.9976167 18.0002011,16.9061705 C17.926197,16.7366529 17.8469362,16.5690835 17.7624188,16.4034625 L17.7624187,16.4034623 C17.1484783,15.2076395 16.267008,14.1691156 15.1863612,13.3684086 L15.1863613,13.3684087 C12.7764435,11.5890853 9.62131001,11.1682485 6.8283326,12.2536266 C6.50489112,12.3911538 6.1310595,12.2407731 5.99335724,11.9177414 C5.85565519,11.5947106 6.00622708,11.2213535 6.32966935,11.0838261 C6.34137498,11.0788489 6.35322747,11.0742233 6.36521063,11.0699555 L6.36521118,11.0699553 C9.56617627,9.82486859 13.1829525,10.3072964 15.9445541,12.3477151 C17.1831619,13.2641313 18.1933221,14.4536419 18.8964022,15.8236868 C18.9931441,16.0123587 19.0840408,16.2044205 19.1690921,16.3998743 C19.7117677,17.6509166 19.9907431,19.000142 19.9886404,20.3635424 L19.9886404,20.3635408 C19.9890609,20.7146284 19.7044269,20.9995824 19.352893,21.0000028 C19.3523725,21.0000035 19.351852,21.0000034 19.3513315,21.0000028 L19.3513552,21 Z" id="形状" fill="#3778FF" fill-rule="nonzero"></path>
                    </g>
                </g>
            </g>
        </g>
    </g>
</svg>