<?xml version="1.0" encoding="UTF-8"?>
<svg width="14px" height="14px" viewBox="0 0 14 14" version="1.1" xmlns="http://www.w3.org/2000/svg" xmlns:xlink="http://www.w3.org/1999/xlink">
    <!-- Generator: Sketch 52.5 (67469) - http://www.bohemiancoding.com/sketch -->
    <title>解释</title>
    <desc>Created with Sketch.</desc>
    <g id="页面-1" stroke="none" stroke-width="1" fill="none" fill-rule="evenodd">
        <g id="画板-copy-23" transform="translate(-209.000000, -558.000000)" fill="#7AA0FF" fill-rule="nonzero">
            <g id="解释" transform="translate(209.000000, 558.000000)">
                <g id="分组">
                    <path d="M8.43124101,4.13728889 C8.76800465,4.47440889 8.93638499,4.89580741 8.93638499,5.40148593 C8.93638499,5.82288444 8.85219423,6.16000444 8.59962135,6.41284444 C8.51543059,6.58140444 8.26285772,6.74996444 7.84190465,7.08708296 C7.67352283,7.33992296 7.50514101,7.59276148 7.42095159,7.67704148 C7.25256977,7.92988148 7.25256977,8.09844 7.25256977,8.35128 L7.25256977,8.60412 L6.66323488,8.60412 L6.66323488,8.35128 C6.66323488,8.09844 6.74742564,7.84560148 6.8316167,7.59276148 C6.99999852,7.33992148 7.25256977,7.00280296 7.67352431,6.58140296 L8.09447738,6.16000444 C8.2628592,5.90716444 8.43124101,5.65432593 8.43124101,5.40148593 C8.43124101,4.98008741 8.34705025,4.72724741 8.09447738,4.47440741 C7.84190465,4.22156741 7.50514249,4.13728741 6.99999704,4.13728741 C6.49485307,4.13728741 6.15808943,4.30584741 5.9055167,4.64296593 C5.65294397,4.89580593 5.56875307,5.31720444 5.56875307,5.82288296 L4.97941818,5.82288296 C4.97941818,5.23292444 5.1478,4.72724444 5.48456216,4.30584593 C5.82132579,3.88444741 6.32646977,3.71588741 6.99999556,3.71588741 C7.67352135,3.63160756 8.0944759,3.80016726 8.43123805,4.13728593 L8.43124101,4.13728889 Z M7.25257125,9.61548148 C7.33676201,9.69976133 7.42095307,9.78404148 7.42095307,9.95260148 C7.42095305,10.1211615 7.3367623,10.2054415 7.25257125,10.2897215 C7.16838049,10.3740013 7.08418943,10.4582815 6.91580761,10.4582815 C6.74742579,10.4582815 6.66323488,10.3740016 6.57904397,10.2897215 C6.49485321,10.2054416 6.41066216,10.1211615 6.41066216,9.95260148 C6.41066216,9.78404148 6.41066216,9.69976148 6.57904397,9.61548148 C6.66323474,9.53120163 6.8316167,9.44692148 6.91580761,9.44692148 C7.08418943,9.44692148 7.16838034,9.53120133 7.25257125,9.61548148 Z" id="形状"></path>
                    <path d="M7,13.9980296 C3.1272241,13.9980296 0.0121649049,10.8796741 0.0121649049,7.0028 C0.0121649049,3.12592593 3.1272241,0.00757037037 7,0.00757037037 C10.8727759,0.00757037037 13.9878351,3.12592593 13.9878351,7.0028 C13.9878351,10.8796741 10.8727759,13.9980296 7,13.9980296 Z M7,0.513259259 C3.46399366,0.513259259 0.517319239,3.46305185 0.517319239,7.0028 C0.517319239,10.5425481 3.46399366,13.4923407 7,13.4923407 C10.5360063,13.4923407 13.4826808,10.5425481 13.4826808,7.0028 C13.4826808,3.46305185 10.5360063,0.513259259 7,0.513259259 Z" id="形状"></path>
                </g>
            </g>
        </g>
    </g>
</svg>