<?xml version="1.0" encoding="UTF-8"?>
<svg width="21px" height="14px" viewBox="0 0 21 14" version="1.1" xmlns="http://www.w3.org/2000/svg" xmlns:xlink="http://www.w3.org/1999/xlink">
    <!-- Generator: Sketch 52.5 (67469) - http://www.bohemiancoding.com/sketch -->
    <title>icon-私有云存储-32</title>
    <desc>Created with Sketch.</desc>
    <g id="页面-1" stroke="none" stroke-width="1" fill="none" fill-rule="evenodd">
        <g id="画板-copy-23" transform="translate(-30.000000, -171.000000)" fill="#FFFFFF" fill-rule="nonzero">
            <g id="icon-私有云存储-32" transform="translate(30.000000, 171.000000)">
                <g id="分组">
                    <path d="M10.2741399,1.29135567 C12.8930383,1.29135567 15.1090292,3.08802443 15.5790879,5.46219386 L15.7133904,5.46219386 C17.7950788,5.46219386 19.4738599,7.06636239 19.4738599,9.05553137 C19.4738599,11.0447004 17.7950788,12.6488689 15.7133904,12.6488689 L5.10349431,12.6488689 C3.02180584,12.6488689 1.34302482,11.0447004 1.34302482,9.05553137 C1.34302482,7.7080298 2.14883971,6.48886172 3.29041081,5.91136105 L3.29041081,5.59052734 C3.29041081,4.43552599 4.29767942,3.47302487 5.50640176,3.47302487 C5.64070424,3.47302487 5.77500672,3.47302487 5.9093092,3.53719162 C6.78227533,2.12552331 8.46105636,1.29135567 10.2741399,1.29135567 Z M10.2741399,0.00802084267 C8.32675388,0.00802084267 6.44651913,0.84218848 5.17064555,2.25385679 C3.49186453,2.38219027 2.08168847,3.6655251 1.94738599,5.26969363 C0.73866365,6.16802801 -6.10623374e-16,7.57969632 -6.10623374e-16,9.11969811 C-6.10623374e-16,11.8147012 2.28314219,13.9963705 5.10349431,13.9963705 L15.7133904,13.9963705 C18.5337425,13.9963705 20.8168847,11.8147012 20.8168847,9.11969811 C20.8168847,6.74552868 19.0038012,4.7563597 16.6535078,4.30719251 C15.7133904,1.74052286 13.1616432,0.00802084267 10.2741399,0.00802084267 Z" id="形状"></path>
                    <path d="M12.4229796,5.97552779 C12.4229796,4.88469318 11.5500134,4.05052555 10.4084423,4.05052555 C9.26687125,4.05052555 8.39390512,4.88469318 8.39390512,5.97552779 C8.39390512,6.80969542 8.93111504,7.51552958 9.73692993,7.77219654 L9.73692993,9.82553227 L11.0799548,9.82553227 L11.0799548,7.77219654 C11.8857696,7.51552958 12.4229796,6.80969542 12.4229796,5.97552779 Z M10.4084423,6.6171952 C10.0055349,6.6171952 9.73692993,6.36052823 9.73692993,5.97552779 C9.73692993,5.59052734 10.0055349,5.33386037 10.4084423,5.33386037 C10.8113498,5.33386037 11.0799548,5.59052734 11.0799548,5.97552779 C11.0799548,6.36052823 10.8113498,6.6171952 10.4084423,6.6171952 Z" id="形状"></path>
                </g>
            </g>
        </g>
    </g>
</svg>