<?xml version="1.0" encoding="UTF-8"?>
<svg width="21px" height="17px" viewBox="0 0 21 17" version="1.1" xmlns="http://www.w3.org/2000/svg" xmlns:xlink="http://www.w3.org/1999/xlink">
    <!-- Generator: Sketch 52.5 (67469) - http://www.bohemiancoding.com/sketch -->
    <title>形状</title>
    <desc>Created with Sketch.</desc>
    <g id="页面-1" stroke="none" stroke-width="1" fill="none" fill-rule="evenodd">
        <g id="画板-copy-23" transform="translate(-30.000000, -244.000000)" fill="#F5F5F5" fill-rule="nonzero">
            <g id="公有云后台svg" transform="translate(30.000000, 244.000000)">
                <path d="M9.30915313,15.8919462 L4.5571358,15.8919462 C3.34965944,15.8919462 2.22036792,15.374075 1.32445957,14.4979356 L1.32445919,14.4979352 C0.473117454,13.6344381 -0.0039834562,12.4578773 -2.37016379e-06,11.2317088 L-2.3112445e-06,11.2317273 C-0.00390771135,10.0056755 0.473183109,8.82923443 1.32444676,7.96580436 L1.32444655,7.96580457 C2.16887254,7.09544649 3.31936267,6.60770049 4.5183271,6.61176978 L4.7129099,6.57179381 C4.7129099,4.81920517 5.37514146,3.14658091 6.5826147,1.91186824 C7.79009105,0.677155572 9.38733588,-2.63214177e-05 11.1009677,-2.63214177e-05 C12.1138613,-2.63214177e-05 13.0873719,0.199247411 13.9832803,0.677142795 C14.8012958,1.11506078 15.5802127,1.75225409 16.1645531,2.54904718 C16.3594311,2.78829671 16.3203374,3.14656653 16.0866609,3.34553842 C15.852689,3.50483667 15.5414161,3.46516351 15.3465381,3.22621614 C14.8400906,2.58902282 14.2169546,2.03117583 13.5159258,1.67260417 L13.515926,1.67260427 C12.782961,1.2794261 11.9674678,1.07446207 11.1397689,1.07538676 C9.73770976,1.07538676 8.41324819,1.63293031 7.40065607,2.66836925 C6.38776251,3.70411003 5.8428129,5.05814961 5.8428129,6.53210063 C5.8428129,6.69139888 5.8813148,6.89037045 5.8813148,7.04997182 C5.8813148,7.20896727 5.8428129,7.36826584 5.72582661,7.4878898 C5.64793445,7.60721209 5.49185463,7.68716354 5.33636581,7.68716354 L4.55744423,7.68716354 C3.6612407,7.68716354 2.80442321,8.04543336 2.14219477,8.72260247 C1.48025995,9.39977159 1.1295964,10.275911 1.1295964,11.2316986 C1.1295964,12.1877912 1.48025839,13.0639322 2.14248995,13.7410981 C2.80442477,14.4182672 3.66123913,14.7768389 4.55714592,14.7768389 L9.30916326,14.7768389 C9.62073127,14.7768389 9.85440805,15.0154831 9.85440805,15.3340806 C9.85440805,15.6529799 9.62073127,15.8919276 9.30945844,15.8919276 L9.30915313,15.8919462 Z M14.2160564,4.23985646 C17.4881218,4.23985646 20.1394095,6.95094767 20.1394095,10.296819 C20.1394096,13.6426904 17.4881218,16.3537816 14.2160564,16.3537816 C10.943991,16.3537816 8.29270331,13.6426904 8.29270331,10.296819 C8.29270331,6.95094767 10.943991,4.23985646 14.2160564,4.23985646 Z M19.3211083,9.89313435 C19.1822031,8.0283049 18.0823034,6.38035509 16.4346569,5.56846188 C17.1895889,6.59966064 17.6886319,8.14449042 17.7567508,9.89313435 L19.3211083,9.89313435 Z M16.9606474,9.89313227 C16.861135,7.43641947 15.8802269,5.45276937 14.610854,5.10721528 L14.610854,9.89313227 L16.9606474,9.89313227 Z M13.8212745,5.10721528 C12.5518984,5.45276458 11.5709848,7.43611603 11.471481,9.89313227 L13.8212745,9.89313227 L13.8212745,5.10721528 Z M11.9983619,5.56845341 C10.3501387,6.37988051 9.24967846,8.02797725 9.1107231,9.89312611 L10.6762629,9.89312611 C10.7443815,8.14448218 11.2425361,6.599654 11.9983619,5.56845341 Z M9.11072343,10.7005137 C9.24968692,12.565407 10.3497096,14.2133728 11.9974715,15.0251862 C11.2425396,13.9939874 10.7434966,12.4491576 10.6753777,10.7005137 L9.11102486,10.7005137 L9.11072343,10.7005137 Z M11.471481,10.7005154 C11.5709935,13.1572282 12.5519015,15.1408783 13.8212745,15.4864324 L13.8212745,10.7005154 L11.471481,10.7005154 Z M14.610854,15.4864324 C15.88023,15.1408831 16.8611437,13.1575316 16.9606474,10.7005154 L14.610854,10.7005154 L14.610854,15.4864324 Z M16.4337666,15.0251943 C18.0819739,14.2139142 19.1821999,12.5656546 19.3205149,10.7005217 L17.7558653,10.7005217 C17.6877467,12.4491656 17.1895921,13.9939938 16.4337666,15.0251943 Z" id="形状"></path>
            </g>
        </g>
    </g>
</svg>