<?xml version="1.0" encoding="UTF-8"?>
<svg width="18px" height="22px" viewBox="0 0 18 22" version="1.1" xmlns="http://www.w3.org/2000/svg" xmlns:xlink="http://www.w3.org/1999/xlink">
    <!-- Generator: Sketch 52.5 (67469) - http://www.bohemiancoding.com/sketch -->
    <title> _首页 计费系统</title>
    <desc>Created with Sketch.</desc>
    <g id="页面-1" stroke="none" stroke-width="1" fill="none" fill-rule="evenodd">
        <g id="画板-copy-23" transform="translate(-31.000000, -470.000000)" fill="#F5F5F5" fill-rule="nonzero">
            <g id="-_首页-计费系统" transform="translate(31.000000, 470.000000)">
                <path d="M15.5835915,1.36038937 C16.0219533,1.36432111 16.3763524,1.71871984 16.3802838,2.15708167 L16.3802838,18.9238333 L16.3802838,18.9238344 C16.3763515,19.3621963 16.0219533,19.7165953 15.5835892,19.7205245 L2.4164383,19.7205245 C1.9780765,19.7165927 1.62367743,19.362194 1.61974603,18.9238322 L1.61974603,2.15708055 L1.61974604,2.15707934 C1.62367844,1.71871751 1.97807651,1.36431844 2.4164406,1.3603893 L15.5401356,1.3603893 L15.5835915,1.36038937 Z M15.5908331,0.0386043463 L2.40919681,0.0386043463 C1.24826684,0.0465544069 0.31078633,0.988881721 0.308826286,2.14983894 L0.308826286,18.9310759 L0.308826295,18.9310815 C0.310790047,20.0920387 1.24827137,21.0343627 2.40920143,21.0423115 L15.5908377,21.0423115 C16.7517677,21.0343614 17.6892482,20.0920342 17.6912083,18.9310769 L17.6912083,2.14984002 L17.6912083,2.14983884 C17.6872836,0.989694152 16.7509416,0.0485108379 15.5908309,0.038606504 L15.5908331,0.0386043463 Z M14.1423016,17.9207252 L3.86497093,17.9207252 C3.55155172,17.9224743 3.27834285,17.7078103 3.20588911,17.4028752 C3.12788861,17.0473308 3.35288335,16.6958718 3.70842992,16.6178706 C3.75508757,16.6076347 3.80271958,16.6025015 3.85048695,16.6025612 L14.120575,16.6025612 C14.4393809,16.5939494 14.7205296,16.8101014 14.7941421,17.1204112 C14.8721695,17.475951 14.6472017,17.8274259 14.2916624,17.9054542 C14.2426201,17.9162171 14.1925086,17.9213407 14.142303,17.9207253 L14.1423016,17.9207252 Z M14.1423016,14.3211245 L3.86497093,14.3211245 C3.55047668,14.3224832 3.27690114,14.1060278 3.20588915,13.7996532 C3.12788865,13.4441088 3.35288338,13.0926498 3.70842995,13.0146486 C3.7550876,13.0044127 3.80271962,12.9992795 3.85048698,12.9993392 L14.120575,12.9993392 C14.4404628,12.9910992 14.7219917,13.2090576 14.7941422,13.5208106 C14.8721696,13.8763504 14.6472018,14.2278252 14.2916624,14.3058535 C14.2426201,14.3166164 14.1925087,14.3217401 14.142303,14.3211247 L14.1423016,14.3211245 Z M11.4770037,8.4400868 L9.66633941,8.4400868 L9.66633941,7.3536882 L11.4770037,7.3536882 C11.7941981,7.35846218 12.0717322,7.14126242 12.1433282,6.83221688 C12.2213287,6.47667249 11.9963339,6.12521349 11.6407896,6.04721233 C11.594132,6.03697647 11.5465,6.03184319 11.4987326,6.03190296 L9.93431862,6.03190296 L11.6399644,4.32625717 C11.8686083,4.1059611 11.9123653,3.75590695 11.744983,3.48610891 C11.54807,3.17996857 11.1402641,3.09142256 10.8341237,3.28833525 C10.7942387,3.31398965 10.7572391,3.34387398 10.7237676,3.37746905 L9.00001516,5.10846414 L7.29074805,3.39919702 C7.07177151,3.17918117 6.73079106,3.13730706 6.46508512,3.29779982 C6.15894486,3.49471269 6.07039884,3.90251866 6.26731131,4.20865899 C6.2929657,4.24854408 6.32285004,4.28554365 6.3564451,4.31901513 L8.07657621,6.03914624 L6.54475419,6.03914624 C6.22863708,6.03399119 5.9514787,6.24939221 5.87842971,6.55699624 C5.80042921,6.91254065 6.02542394,7.26399965 6.38097051,7.34200081 C6.42762816,7.35223667 6.47526018,7.35736995 6.52302754,7.35731018 L8.33369186,7.35731018 L8.33369186,8.44370877 L6.52302754,8.44370877 C6.20583307,8.43893482 5.92829897,8.65613455 5.85670304,8.96518009 C5.77870254,9.32072451 6.00369727,9.67218351 6.35924385,9.75018467 C6.4059015,9.76042053 6.45353351,9.76555381 6.50130087,9.76549404 L8.3119652,9.76549404 L8.3119652,10.4535465 L8.31196519,10.4535463 C8.33900225,10.8185468 8.65681073,11.0925207 9.0218135,11.065483 C9.34920651,11.0412316 9.60950082,10.7809393 9.63375014,10.4535463 L9.63375014,9.7654939 L11.4444145,9.7654939 C11.7616089,9.77026787 12.039143,9.55306812 12.1107389,9.24402257 L12.1107389,9.24402245 C12.1907746,8.88892854 11.9677969,8.5361885 11.6127044,8.45615261 C11.5681505,8.44611046 11.5226736,8.44072654 11.4770066,8.44008765 L11.4770037,8.4400868 Z" id="形状"></path>
            </g>
        </g>
    </g>
</svg>