<?xml version="1.0" encoding="UTF-8"?>
<svg width="20px" height="19px" viewBox="0 0 20 19" version="1.1" xmlns="http://www.w3.org/2000/svg" xmlns:xlink="http://www.w3.org/1999/xlink">
    <!-- Generator: Sketch 52.5 (67469) - http://www.bohemiancoding.com/sketch -->
    <title>容器管理</title>
    <desc>Created with Sketch.</desc>
    <g id="页面-1" stroke="none" stroke-width="1" fill="none" fill-rule="evenodd">
        <g id="画板-copy-23" transform="translate(-30.000000, -319.000000)" fill="#F5F5F5" fill-rule="nonzero">
            <g id="容器管理" transform="translate(30.000000, 319.000000)">
                <g id="分组" transform="translate(0.095486, 0.146712)">
                    <path d="M9.67252514,18.2506121 L0.696514699,18.2506121 C0.178291874,18.2506121 0.0120694585,18.095077 0.0120694585,17.5798671 C0.0120694585,14.8276255 0.00229166933,12.0680933 0.0218472476,9.3170668 C0.0218472476,8.94767102 0.148958507,8.57827524 0.246736398,8.21860041 C0.980070585,5.6425509 1.71340477,3.07622233 2.43696117,0.50017282 C2.54451685,0.1210561 2.69118369,0.0141257432 3.08229525,0.0141257432 L16.2823106,0.0141257432 C16.6636444,0.0141257432 16.8103112,0.130777042 16.9178669,0.490451879 C17.7098678,3.27064116 18.492091,6.06055138 19.2840919,8.84074067 C19.3244253,8.98655479 19.3537586,9.15181079 19.3537586,9.30734586 L19.3537586,17.5895881 C19.3537586,18.0853561 19.1765362,18.260333 18.677869,18.260333 C15.6760877,18.2506121 12.6730842,18.2506121 9.67252514,18.2506121 Z M1.04851505,17.2104715 L18.3075352,17.2104713 C18.3075352,17.1412096 18.317313,17.0840991 18.317313,17.0257734 L18.317313,9.36567151 C18.317313,9.24902021 18.2965352,9.14208985 18.2672018,9.0351595 C17.7587568,7.22706437 17.2503117,5.42869018 16.7418667,3.630316 L16.0085325,1.06398743 L3.37562893,1.06398743 C3.35607335,1.12231308 3.33651777,1.17091779 3.32673998,1.21952249 C2.5934058,3.81501389 1.85029382,6.42022622 1.12673742,9.01571761 L1.12673737,9.01571781 C1.08809466,9.15173828 1.06835594,9.29237543 1.06807063,9.4337183 L1.06807063,16.967448 C1.04851505,17.0354946 1.04851505,17.1229831 1.04851505,17.2104715 Z" id="形状"></path>
                    <path d="M16.3715329,8.95739196 C15.6369765,8.95739196 14.9329757,8.96711291 14.2301971,8.94767102 C14.0446855,8.93735101 13.8656498,9.01706374 13.7498632,9.16153174 C13.0458624,9.93920706 12.3418616,10.7071614 11.628083,11.4653949 C11.5477491,11.5468902 11.4395842,11.5954548 11.3249715,11.6014881 C10.2298591,11.611209 9.12496893,11.611209 8.02985655,11.6014881 C7.9147708,11.5974262 7.80590314,11.5485465 7.72674506,11.4653949 C6.99341088,10.6767835 6.26985448,9.89060236 5.54629808,9.10320609 C5.46466789,9.00539066 5.34155273,8.95139102 5.21385327,8.957392 C4.48051909,8.96711294 3.7471849,8.957392 2.99429513,8.957392 C3.60051806,6.52715661 4.20674099,4.10664217 4.81296392,1.68612772 L14.5418641,1.68612772 L16.3715329,8.957392 Z M5.62452043,2.70682655 C5.18451992,4.44687509 4.7542972,6.17720268 4.31429669,7.9366931 C4.64674152,7.9366931 4.94985298,7.94641404 5.24318666,7.9366931 C5.66363159,7.91725122 5.98629863,8.07278628 6.26985452,8.37413547 C6.90541081,9.07404326 7.54096711,9.76423011 8.18630119,10.454417 C8.26595654,10.5297239 8.36989578,10.5745025 8.47963485,10.5807892 C9.27163577,10.5905101 10.0734145,10.5905101 10.8654154,10.5795741 C10.9804152,10.5762231 11.0893993,10.5277276 11.1685269,10.444696 C11.8138609,9.75450915 12.459195,9.0643223 13.0947513,8.36441451 C13.3587516,8.07278626 13.6801964,7.9172512 14.082308,7.93669308 C14.3951973,7.94641402 14.7080865,7.93669308 15.0307536,7.93669308 C15.0209758,7.85892555 15.0099758,7.81032084 15.0014202,7.76171613 L15.0013897,7.76159588 C14.5914941,6.1461045 14.1873429,4.52917397 13.7889438,2.91084605 C13.7510549,2.74559005 13.6813882,2.70670628 13.516388,2.70670628 C10.953385,2.71642722 8.39160422,2.70670628 5.82982346,2.70670628 L5.62452044,2.70670628 L5.62452043,2.70682655 Z" id="形状"></path>
                    <path d="M9.70185851,4.20385155 L11.3151937,4.20385155 C11.6977497,4.20385155 11.9311944,4.40799132 11.9311944,4.73850333 C11.9311944,5.0592944 11.6977497,5.27315512 11.3151937,5.27315512 L8.02985657,5.27315512 C7.65830058,5.27315512 7.41385585,5.0592944 7.42363364,4.72878239 C7.42363364,4.40799132 7.65830058,4.20385155 8.02985657,4.20385155 L9.70185851,4.20385155 Z M9.65296957,7.71311145 L8.03963436,7.71311145 C7.65830058,7.71311145 7.42363364,7.50897167 7.42363364,7.17845966 C7.42363364,6.85766859 7.65830058,6.64380788 8.03963436,6.64380788 L11.3249715,6.64380788 C11.6977497,6.64380788 11.9409722,6.85766859 11.9311944,7.1881806 C11.9311944,7.50897167 11.6977497,7.71311145 11.3347493,7.71311145 C10.7688598,7.72283239 10.2103035,7.71311145 9.65296957,7.71311145 Z" id="形状"></path>
                </g>
            </g>
        </g>
    </g>
</svg>